<?xml version="1.0" encoding="UTF-8" standalone="no"?>
<!-- Created with Inkscape (http://www.inkscape.org/) -->

<svg
   xmlns:dc="http://purl.org/dc/elements/1.1/"
   xmlns:cc="http://creativecommons.org/ns#"
   xmlns:rdf="http://www.w3.org/1999/02/22-rdf-syntax-ns#"
   xmlns:svg="http://www.w3.org/2000/svg"
   xmlns="http://www.w3.org/2000/svg"
   xmlns:sodipodi="http://sodipodi.sourceforge.net/DTD/sodipodi-0.dtd"
   xmlns:inkscape="http://www.inkscape.org/namespaces/inkscape"
   width="205.82465mm"
   height="243.01656mm"
   viewBox="0 0 205.82465 243.01656"
   version="1.1"
   id="svg328"
   inkscape:version="0.92.2 5c3e80d, 2017-08-06"
   sodipodi:docname="editedlogo.svg">
  <defs
     id="defs322" />
  <sodipodi:namedview
     id="base"
     pagecolor="#ffffff"
     bordercolor="#666666"
     borderopacity="1.0"
     inkscape:pageopacity="0.0"
     inkscape:pageshadow="2"
     inkscape:zoom="0.35"
     inkscape:cx="391.10836"
     inkscape:cy="456.02852"
     inkscape:document-units="mm"
     inkscape:current-layer="layer1"
     showgrid="false"
     inkscape:window-width="1440"
     inkscape:window-height="817"
     inkscape:window-x="0"
     inkscape:window-y="1"
     inkscape:window-maximized="1" />
  <metadata
     id="metadata325">
    <rdf:RDF>
      <cc:Work
         rdf:about="">
        <dc:format>image/svg+xml</dc:format>
        <dc:type
           rdf:resource="http://purl.org/dc/dcmitype/StillImage" />
        <dc:title></dc:title>
      </cc:Work>
    </rdf:RDF>
  </metadata>
  <g
     inkscape:label="Layer 1"
     inkscape:groupmode="layer"
     id="layer1"
     transform="translate(-2.3525796,-26.474329)">
    <g
       id="layer1-2"
       inkscape:label="Layer 1"
       transform="matrix(4.7139737,0,0,4.7139737,-362.70518,-459.48327)">
      <path
         sodipodi:nodetypes="cccscccsscccscscscccccccscccccccccccscccccccccscccccccscccsscccsscccccccssccccccccscsccscsccccccccccccccccscccsccccccsc"
         inkscape:connector-curvature="0"
         id="path59-7"
         d="m 102.64769,132.98822 c -1.76367,-0.61482 -3.307284,-2.80756 -3.307284,-4.69806 -0.0204,-1.88405 -3.962071,-3.75575 -5.027068,-3.70482 -2.527751,0.24699 -4.784322,1.75659 -5.691266,3.80735 -0.73705,1.6666 -2.404536,3.23296 -3.70052,3.47608 -3.880959,0.72808 -6.86508,-1.61447 -6.829829,-5.36144 0.0163,-1.73283 0.319039,-2.45041 1.626952,-3.85633 0.697231,-0.74948 2.737493,-1.51513 4.037418,-1.51513 1.813809,0 4.876242,-2.08518 5.541532,-3.77317 0.921628,-2.33838 2.741408,-3.61882 5.158088,-3.62936 2.719485,-0.0119 5.05452,2.01639 5.35114,4.64805 0.286657,2.0712 3.144647,4.29588 4.838787,4.34198 2.47097,0 4.82591,-1.70796 5.40151,-3.91755 0.74814,-2.87194 2.85441,-4.43895 5.69076,-4.23379 2.54181,0.18386 4.42441,1.90787 4.90414,4.491 0.26512,1.42755 -0.45235,3.62011 -1.51332,4.62463 -1.25422,1.18748 -1.89682,1.44909 -3.82049,1.55534 -2.82044,0.15578 -5.13069,1.8723 -5.4827,4.07367 -0.20773,1.29905 -1.66762,3.04258 -3.02113,3.60811 -1.04835,0.43803 -2.99686,0.46777 -4.15672,0.0634 z m 3.45493,-0.50674 c 1.49203,-0.37569 2.6108,-1.61324 3.15703,-3.4922 0.4392,-1.51082 1.63763,-2.88021 3.30992,-3.78211 0.50932,-0.27469 0.98557,-0.55896 1.05833,-0.63172 0.0728,-0.0728 0.91592,-0.14071 1.8737,-0.151 1.47258,-0.0158 1.88763,-0.13026 2.68871,-0.74127 0.52103,-0.3974 1.12814,-1.17446 1.34914,-1.72679 0.49733,-1.24296 0.39854,-3.67126 -0.18564,-4.56282 -0.51291,-0.78281 -1.82968,-1.78909 -2.63035,-2.01014 -0.88611,-0.24464 -2.87153,-0.16432 -3.06039,0.12381 -0.0921,0.14052 -0.46511,0.33031 -0.82892,0.42177 -0.7412,0.18635 -1.85842,1.67077 -1.96314,2.60839 -0.16969,1.5194 -1.95399,3.59517 -3.72724,4.33608 -0.45875,0.19167 -1.50878,0.38514 -2.33342,0.42992 -1.73905,0.30539 -4.05676,1.50542 -4.65031,3.16361 -0.838404,2.40506 0.42998,5.08119 2.81091,5.93064 1.24424,0.44391 1.65771,0.45498 3.13167,0.0838 z m -2.93412,-2.04716 c -0.44116,-0.26903 -1.02808,-0.99024 -1.30426,-1.6027 -0.47164,-1.04592 -0.47557,-1.15852 -0.0648,-1.85398 0.24056,-0.40724 0.38099,-0.81668 0.31207,-0.90986 -0.0689,-0.0932 -0.0499,-0.11378 0.0424,-0.0458 0.0922,0.068 0.46549,-0.1106 0.82943,-0.39687 0.96094,-0.75588 2.47152,-0.68449 3.48046,0.16447 0.44773,0.37674 0.81405,0.84307 0.81405,1.03629 0,0.19322 0.14883,0.40157 0.33073,0.46301 0.59448,0.20078 -0.39164,2.36725 -1.38429,3.04125 -1.06424,0.72259 -1.99001,0.75415 -3.05584,0.10418 z m 2.97454,-0.89793 c 0.80024,-0.87432 0.95364,-1.65102 0.49951,-2.5292 -0.89479,-1.73033 -3.28266,-1.66353 -4.02477,0.11259 -0.62464,1.49498 0.38985,3.01192 2.01429,3.01192 0.66404,0 1.13645,-0.18613 1.51097,-0.59531 z m 7.42708,-7.40965 c -1.46053,-1.20621 -1.52813,-3.03225 -0.16076,-4.34227 0.62311,-0.59698 1.02581,-0.74965 1.97741,-0.74965 1.01535,0 1.311,0.12988 1.967,0.86407 1.31198,1.46836 0.95694,3.66524 -0.73191,4.52893 -0.93713,0.47925 -2.26557,0.34819 -3.05174,-0.30108 z m 3.25314,-0.70594 c 0.95917,-0.95918 0.98604,-1.84369 0.0884,-2.91047 -1.34329,-1.5964 -3.81294,-0.69002 -3.81294,1.39936 0,0.69643 0.19415,1.07792 0.81405,1.59953 1.06677,0.89763 1.95129,0.87076 2.91047,-0.0884 z m -31.743674,9.73258 c 1.243654,-0.41654 1.93755,-1.10964 2.782138,-2.77894 0.397887,-0.78641 0.879868,-1.55967 1.071068,-1.71835 0.1912,-0.15869 0.28239,-0.39409 0.202643,-0.52312 -0.07975,-0.12903 -0.03333,-0.2346 0.10315,-0.2346 0.136478,0 0.924892,-0.40752 1.75203,-0.9056 0.827139,-0.49808 1.942892,-0.97099 2.479452,-1.05093 0.53656,-0.0799 1.451813,-0.21025 2.033897,-0.28959 2.548438,-0.34739 4.272189,-3.09056 3.573212,-5.68639 -0.157157,-0.58365 -0.549177,-1.3173 -0.871144,-1.63033 -0.32197,-0.31304 -0.406807,-0.4835 -0.18853,-0.37881 0.21828,0.10468 0.049,-0.10695 -0.376177,-0.47029 -0.958093,-0.81876 -2.835973,-1.31467 -4.142471,-1.09394 -1.046898,0.17688 -3.266392,1.84998 -3.008238,2.26768 0.08238,0.1333 0.01667,0.24236 -0.146028,0.24236 -0.162697,0 -0.222228,0.11906 -0.132291,0.26459 0.08994,0.14552 0.06451,0.26458 -0.05651,0.26458 -0.121017,0 -0.444603,0.417 -0.71908,0.92668 -0.930022,1.72694 -3.607771,3.28647 -6.018277,3.50504 -0.847279,0.0768 -1.540508,0.24924 -1.540508,0.38314 0,0.1339 -0.119062,0.16987 -0.264583,0.0799 -0.145522,-0.0899 -0.264584,-0.0304 -0.264584,0.13229 0,0.1627 -0.09966,0.23422 -0.221464,0.15894 -0.352048,-0.21757 -1.330686,0.59273 -1.791054,1.48299 -0.646972,1.2511 -0.596468,4.17446 0.08873,5.13579 1.405147,1.97144 3.436145,2.65993 5.654622,1.91688 z m -2.853812,-1.93811 c -1.086846,-0.4727 -1.774984,-1.77844 -1.577759,-2.9938 0.176357,-1.08676 0.751412,-1.78427 1.933488,-2.3452 0.816102,-0.38727 0.926447,-0.3754 1.998339,0.21486 0.858659,0.47284 1.2244,0.88367 1.504086,1.68952 0.328967,0.94785 0.319459,1.17032 -0.08659,2.026 -0.274787,0.57907 -0.805784,1.12716 -1.335575,1.37856 -1.057764,0.50194 -1.342936,0.50546 -2.435988,0.0301 z m 2.706883,-1.05592 c 1.710093,-1.71009 -0.154159,-4.40422 -2.398649,-3.46642 -1.380965,0.57701 -1.697295,2.34608 -0.623822,3.48874 0.802198,0.8539 2.156251,0.8439 3.022471,-0.0223 z m 7.634431,-7.12932 c -0.642238,-0.64224 -0.899583,-1.13798 -0.899583,-1.73293 0,-1.90647 1.653976,-3.37346 3.40795,-3.02267 0.437264,0.0875 1.129815,0.53245 1.539004,0.98887 0.663969,0.74061 0.727859,0.96912 0.594099,2.12478 -0.2927,2.5288 -2.849971,3.43345 -4.64147,1.64195 z m 3.532188,-0.58034 c 1.420059,-1.58927 -0.0749,-3.96756 -2.164311,-3.44315 -1.402348,0.35196 -2.102701,1.87031 -1.403548,3.04285 0.876955,1.47073 2.453367,1.6476 3.567859,0.4003 z"
         style="fill:#000000;fill-opacity:1;stroke-width:0.26458338" />
      <path
         sodipodi:nodetypes="cccscccsscccscscscccccccscccccccccccscccccccccscccccccscccsscccsscccccccssccccccccscsccscsccccccccccccccccscccsccccccsc"
         inkscape:connector-curvature="0"
         id="path59"
         d="m 103.05459,122.34367 c -1.76367,-0.61482 -3.307287,-2.80756 -3.307287,-4.69806 -0.02036,-1.88405 -3.962087,-3.75575 -5.027084,-3.70482 -2.527751,0.24699 -4.784322,1.75659 -5.691266,3.80735 -0.737051,1.6666 -2.404537,3.23296 -3.700521,3.47608 -3.880959,0.72808 -6.86508,-1.61447 -6.829829,-5.36144 0.0163,-1.73283 0.319039,-2.45041 1.626952,-3.85633 0.697231,-0.74948 2.737494,-1.51513 4.037418,-1.51513 1.813809,0 4.876243,-2.08518 5.541533,-3.77317 0.921628,-2.33838 2.741408,-3.61882 5.158088,-3.62936 2.719481,-0.0119 5.054534,2.01639 5.351156,4.64805 0.28666,2.0712 3.14465,4.29588 4.83879,4.34198 2.47097,0 4.82591,-1.70796 5.40151,-3.91755 0.74814,-2.87194 2.85441,-4.43895 5.69076,-4.23379 2.54181,0.18386 4.42441,1.90787 4.90414,4.491 0.26512,1.42755 -0.45235,3.62011 -1.51332,4.62463 -1.25422,1.18748 -1.89682,1.44909 -3.82049,1.55534 -2.82044,0.15578 -5.13069,1.8723 -5.4827,4.07367 -0.20773,1.29905 -1.66762,3.04258 -3.02113,3.60811 -1.04835,0.43803 -2.99686,0.46777 -4.15672,0.0634 z m 3.45493,-0.50674 c 1.49203,-0.37569 2.6108,-1.61324 3.15703,-3.4922 0.4392,-1.51082 1.63763,-2.88021 3.30992,-3.78211 0.50932,-0.27469 0.98557,-0.55896 1.05833,-0.63172 0.0728,-0.0728 0.91592,-0.14071 1.8737,-0.151 1.47258,-0.0158 1.88763,-0.13026 2.68871,-0.74127 0.52103,-0.3974 1.12814,-1.17446 1.34914,-1.72679 0.49733,-1.24296 0.39854,-3.67126 -0.18564,-4.56282 -0.51291,-0.78281 -1.82968,-1.78909 -2.63035,-2.01014 -0.88611,-0.24464 -2.87153,-0.16432 -3.06039,0.12381 -0.0921,0.14052 -0.46511,0.33031 -0.82892,0.42177 -0.7412,0.18635 -1.85842,1.67077 -1.96314,2.60839 -0.16969,1.5194 -1.95399,3.59517 -3.72724,4.33608 -0.45875,0.19167 -1.50878,0.38514 -2.33342,0.42992 -1.73905,0.30539 -4.05676,1.50542 -4.65031,3.16361 -0.838412,2.40506 0.42998,5.08119 2.81091,5.93064 1.24424,0.44391 1.65771,0.45498 3.13167,0.0838 z m -2.93412,-2.04716 c -0.44116,-0.26903 -1.02808,-0.99024 -1.30426,-1.6027 -0.47164,-1.04592 -0.47557,-1.15852 -0.0648,-1.85398 0.24056,-0.40724 0.38099,-0.81668 0.31207,-0.90986 -0.0689,-0.0932 -0.0499,-0.11378 0.0424,-0.0458 0.0922,0.068 0.46549,-0.1106 0.82943,-0.39687 0.96094,-0.75588 2.47152,-0.68449 3.48046,0.16447 0.44773,0.37674 0.81405,0.84307 0.81405,1.03629 0,0.19322 0.14883,0.40157 0.33073,0.46301 0.59448,0.20078 -0.39164,2.36725 -1.38429,3.04125 -1.06424,0.72259 -1.99001,0.75415 -3.05584,0.10418 z m 2.97454,-0.89793 c 0.80024,-0.87432 0.95364,-1.65102 0.49951,-2.5292 -0.89479,-1.73033 -3.28266,-1.66353 -4.02477,0.11259 -0.62464,1.49498 0.38985,3.01192 2.01429,3.01192 0.66404,0 1.13645,-0.18613 1.51097,-0.59531 z m 7.42708,-7.40965 c -1.46053,-1.20621 -1.52813,-3.03225 -0.16076,-4.34227 0.62311,-0.59698 1.02581,-0.74965 1.97741,-0.74965 1.01535,0 1.311,0.12988 1.967,0.86407 1.31198,1.46836 0.95694,3.66524 -0.73191,4.52893 -0.93713,0.47925 -2.26557,0.34819 -3.05174,-0.30108 z m 3.25314,-0.70594 c 0.95917,-0.95918 0.98604,-1.84369 0.0884,-2.91047 -1.34329,-1.5964 -3.81294,-0.69002 -3.81294,1.39936 0,0.69643 0.19415,1.07792 0.81405,1.59953 1.06677,0.89763 1.95129,0.87076 2.91047,-0.0884 z m -31.743694,9.73258 c 1.243654,-0.41654 1.93755,-1.10964 2.782138,-2.77894 0.397888,-0.78641 0.879869,-1.55967 1.071069,-1.71835 0.1912,-0.15869 0.28239,-0.39409 0.202643,-0.52312 -0.07975,-0.12903 -0.03333,-0.2346 0.10315,-0.2346 0.136478,0 0.924892,-0.40752 1.75203,-0.9056 0.827139,-0.49808 1.942892,-0.97099 2.479452,-1.05093 0.53656,-0.0799 1.451813,-0.21025 2.033897,-0.28959 2.548445,-0.34739 4.272205,-3.09056 3.573219,-5.68639 -0.15716,-0.58365 -0.549177,-1.3173 -0.871149,-1.63033 -0.321971,-0.31304 -0.40681,-0.4835 -0.188529,-0.37881 0.218282,0.10468 0.049,-0.10695 -0.376179,-0.47029 -0.958094,-0.81876 -2.835974,-1.31467 -4.142472,-1.09394 -1.046898,0.17688 -3.266392,1.84998 -3.008238,2.26768 0.08238,0.1333 0.01667,0.24236 -0.146028,0.24236 -0.162697,0 -0.222228,0.11906 -0.132291,0.26459 0.08994,0.14552 0.06451,0.26458 -0.05651,0.26458 -0.121017,0 -0.444603,0.417 -0.71908,0.92668 -0.930022,1.72694 -3.607772,3.28647 -6.018278,3.50504 -0.847279,0.0768 -1.540508,0.24924 -1.540508,0.38314 0,0.1339 -0.119062,0.16987 -0.264583,0.0799 -0.145521,-0.0899 -0.264583,-0.0304 -0.264583,0.13229 0,0.1627 -0.09966,0.23422 -0.221465,0.15894 -0.352048,-0.21757 -1.330686,0.59273 -1.791054,1.48299 -0.646972,1.2511 -0.596468,4.17446 0.08873,5.13579 1.405147,1.97144 3.436145,2.65993 5.654622,1.91688 z m -2.853812,-1.93811 c -1.086846,-0.4727 -1.774984,-1.77844 -1.577759,-2.9938 0.176358,-1.08676 0.751412,-1.78427 1.933488,-2.3452 0.816102,-0.38727 0.926447,-0.3754 1.998339,0.21486 0.858659,0.47284 1.2244,0.88367 1.504086,1.68952 0.328967,0.94785 0.319459,1.17032 -0.08659,2.026 -0.274787,0.57907 -0.805784,1.12716 -1.335575,1.37856 -1.057764,0.50194 -1.342936,0.50546 -2.435988,0.0301 z m 2.706883,-1.05592 c 1.710093,-1.71009 -0.154159,-4.40422 -2.398649,-3.46642 -1.380965,0.57701 -1.697294,2.34608 -0.623822,3.48874 0.802198,0.8539 2.156252,0.8439 3.022471,-0.0223 z m 7.634432,-7.12932 c -0.642238,-0.64224 -0.899583,-1.13798 -0.899583,-1.73293 0,-1.90647 1.653976,-3.37346 3.40795,-3.02267 0.437264,0.0875 1.129815,0.53245 1.539004,0.98887 0.663967,0.74061 0.727859,0.96912 0.594096,2.12478 -0.292701,2.5288 -2.849968,3.43345 -4.641467,1.64195 z m 3.532188,-0.58034 c 1.420059,-1.58927 -0.0749,-3.96756 -2.164311,-3.44315 -1.402348,0.35196 -2.102701,1.87031 -1.403548,3.04285 0.876955,1.47073 2.453367,1.6476 3.567859,0.4003 z"
         style="fill:#000000;fill-opacity:1;stroke-width:0.26458335" />
      <path
         sodipodi:nodetypes="cccscccsscccscscscccccccscccccccccccscccccccccscccccccscccsscccsscccccccssccccccccscsccscsccccccccccccccccscccsccccccsc"
         inkscape:connector-curvature="0"
         id="path59-7-1"
         d="m 101.99777,154.35599 c -1.76367,-0.61482 -3.307271,-2.80756 -3.307271,-4.69806 -0.0204,-1.88405 -3.962059,-3.75575 -5.027043,-3.70482 -2.527735,0.24699 -4.78429,1.75659 -5.691237,3.80735 -0.737044,1.6666 -2.404515,3.23296 -3.700499,3.47608 -3.880936,0.72808 -6.865041,-1.61447 -6.829791,-5.36144 0.0163,-1.73283 0.31904,-2.45041 1.626941,-3.85633 0.697237,-0.74948 2.737485,-1.51513 4.037396,-1.51513 1.813801,0 4.876213,-2.08518 5.5415,-3.77317 0.921624,-2.33838 2.741395,-3.61882 5.15806,-3.62936 2.719475,-0.0119 5.054493,2.01639 5.35111,4.64805 0.28666,2.0712 3.144644,4.29588 4.838784,4.34198 2.47097,0 4.82591,-1.70796 5.40151,-3.91755 0.74814,-2.87194 2.85441,-4.43895 5.69076,-4.23379 2.54181,0.18386 4.42441,1.90787 4.90414,4.491 0.26512,1.42755 -0.45235,3.62011 -1.51332,4.62463 -1.25422,1.18748 -1.89682,1.44909 -3.82049,1.55534 -2.82044,0.15578 -5.13069,1.8723 -5.4827,4.07367 -0.20773,1.29905 -1.66762,3.04258 -3.02113,3.60811 -1.04835,0.43803 -2.99686,0.46777 -4.15672,0.0634 z m 3.45493,-0.50674 c 1.49203,-0.37569 2.6108,-1.61324 3.15703,-3.4922 0.4392,-1.51082 1.63763,-2.88021 3.30992,-3.78211 0.50932,-0.27469 0.98557,-0.55896 1.05833,-0.63172 0.0728,-0.0728 0.91592,-0.14071 1.8737,-0.151 1.47258,-0.0158 1.88763,-0.13026 2.68871,-0.74127 0.52103,-0.3974 1.12814,-1.17446 1.34914,-1.72679 0.49733,-1.24296 0.39854,-3.67126 -0.18564,-4.56282 -0.51291,-0.78281 -1.82968,-1.78909 -2.63035,-2.01014 -0.88611,-0.24464 -2.87153,-0.16432 -3.06039,0.12381 -0.0921,0.14052 -0.46511,0.33031 -0.82892,0.42177 -0.7412,0.18635 -1.85842,1.67077 -1.96314,2.60839 -0.16969,1.5194 -1.95399,3.59517 -3.72724,4.33608 -0.45875,0.19167 -1.50878,0.38514 -2.33342,0.42992 -1.73905,0.30539 -4.05676,1.50542 -4.650307,3.16361 -0.838394,2.40506 0.42998,5.08119 2.810907,5.93064 1.24424,0.44391 1.65771,0.45498 3.13167,0.0838 z m -2.93412,-2.04716 c -0.44116,-0.26903 -1.02808,-0.99024 -1.30426,-1.6027 -0.47164,-1.04592 -0.47557,-1.15852 -0.0648,-1.85398 0.24056,-0.40724 0.38099,-0.81668 0.31207,-0.90986 -0.0689,-0.0932 -0.0499,-0.11378 0.0424,-0.0458 0.0922,0.068 0.46549,-0.1106 0.82943,-0.39687 0.96094,-0.75588 2.47152,-0.68449 3.48046,0.16447 0.44773,0.37674 0.81405,0.84307 0.81405,1.03629 0,0.19322 0.14883,0.40157 0.33073,0.46301 0.59448,0.20078 -0.39164,2.36725 -1.38429,3.04125 -1.06424,0.72259 -1.99001,0.75415 -3.05584,0.10418 z m 2.97454,-0.89793 c 0.80024,-0.87432 0.95364,-1.65102 0.49951,-2.5292 -0.89479,-1.73033 -3.28266,-1.66353 -4.02477,0.11259 -0.62464,1.49498 0.38985,3.01192 2.01429,3.01192 0.66404,0 1.13645,-0.18613 1.51097,-0.59531 z m 7.42708,-7.40965 c -1.46053,-1.20621 -1.52813,-3.03225 -0.16076,-4.34227 0.62311,-0.59698 1.02581,-0.74965 1.97741,-0.74965 1.01535,0 1.311,0.12988 1.967,0.86407 1.31198,1.46836 0.95694,3.66524 -0.73191,4.52893 -0.93713,0.47925 -2.26557,0.34819 -3.05174,-0.30108 z m 3.25314,-0.70594 c 0.95917,-0.95918 0.98604,-1.84369 0.0884,-2.91047 -1.34329,-1.5964 -3.81294,-0.69002 -3.81294,1.39936 0,0.69643 0.19415,1.07792 0.81405,1.59953 1.06677,0.89763 1.95129,0.87076 2.91047,-0.0884 z m -31.74358,9.73258 c 1.243644,-0.41654 1.937538,-1.10964 2.782115,-2.77894 0.397887,-0.78641 0.879864,-1.55967 1.071064,-1.71835 0.191197,-0.15869 0.282387,-0.39409 0.202637,-0.52312 -0.0797,-0.12903 -0.0333,-0.2346 0.10315,-0.2346 0.13648,0 0.924894,-0.40752 1.752021,-0.9056 0.827134,-0.49808 1.942888,-0.97099 2.479445,-1.05093 0.536557,-0.0799 1.451801,-0.21025 2.033878,-0.28959 2.548425,-0.34739 4.272166,-3.09056 3.573199,-5.68639 -0.157157,-0.58365 -0.549174,-1.3173 -0.871144,-1.63033 -0.321967,-0.31304 -0.406807,-0.4835 -0.18853,-0.37881 0.21828,0.10468 0.049,-0.10695 -0.376177,-0.47029 -0.958084,-0.81876 -2.835952,-1.31467 -4.142446,-1.09394 -1.046884,0.17688 -3.266372,1.84998 -3.008212,2.26768 0.0824,0.1333 0.0167,0.24236 -0.14603,0.24236 -0.1627,0 -0.22223,0.11906 -0.13229,0.26459 0.0899,0.14552 0.0645,0.26458 -0.0565,0.26458 -0.121017,0 -0.444607,0.417 -0.719074,0.92668 -0.930027,1.72694 -3.607749,3.28647 -6.018247,3.50504 -0.847274,0.0768 -1.540501,0.24924 -1.540501,0.38314 0,0.1339 -0.11906,0.16987 -0.26458,0.0799 -0.145517,-0.0899 -0.264587,-0.0304 -0.264587,0.13229 0,0.1627 -0.0997,0.23422 -0.22146,0.15894 -0.352047,-0.21757 -1.330681,0.59273 -1.791038,1.48299 -0.646977,1.2511 -0.596467,4.17446 0.0887,5.13579 1.405131,1.97144 3.436119,2.65993 5.654587,1.91688 z m -2.853805,-1.93811 c -1.086834,-0.4727 -1.774968,-1.77844 -1.577751,-2.9938 0.17636,-1.08676 0.751417,-1.78427 1.933481,-2.3452 0.816094,-0.38727 0.926444,-0.3754 1.998328,0.21486 0.858654,0.47284 1.224394,0.88367 1.504081,1.68952 0.328957,0.94785 0.319457,1.17032 -0.0866,2.026 -0.274787,0.57907 -0.805784,1.12716 -1.335571,1.37856 -1.057754,0.50194 -1.342924,0.50546 -2.435978,0.0301 z m 2.706875,-1.05592 c 1.710081,-1.71009 -0.15416,-4.40422 -2.398635,-3.46642 -1.380964,0.57701 -1.697291,2.34608 -0.623817,3.48874 0.802184,0.8539 2.156238,0.8439 3.022452,-0.0223 z m 7.634388,-7.12932 c -0.642237,-0.64224 -0.899587,-1.13798 -0.899587,-1.73293 0,-1.90647 1.653971,-3.37346 3.407932,-3.02267 0.437267,0.0875 1.129814,0.53245 1.539001,0.98887 0.663967,0.74061 0.727857,0.96912 0.594097,2.12478 -0.292697,2.5288 -2.849955,3.43345 -4.641443,1.64195 z m 3.532169,-0.58034 c 1.420041,-1.58927 -0.0749,-3.96756 -2.164308,-3.44315 -1.402331,0.35196 -2.102688,1.87031 -1.403531,3.04285 0.876944,1.47073 2.453345,1.6476 3.567839,0.4003 z"
         style="fill:#000000;fill-opacity:1;stroke-width:0.26458341" />
      <path
         sodipodi:nodetypes="cccscccsscccscscscccccccscccccccccccscccccccccscccccccscccsscccsscccccccssccccccccscsccscsccccccccccccccccscccsccccccsc"
         inkscape:connector-curvature="0"
         id="path59-9"
         d="m 102.40467,143.71144 c -1.76367,-0.61482 -3.307284,-2.80756 -3.307284,-4.69806 -0.0204,-1.88405 -3.962056,-3.75575 -5.02705,-3.70482 -2.527738,0.24699 -4.784293,1.75659 -5.69124,3.80735 -0.737044,1.6666 -2.404515,3.23296 -3.700499,3.47608 -3.880936,0.72808 -6.865041,-1.61447 -6.829791,-5.36144 0.0163,-1.73283 0.31904,-2.45041 1.626941,-3.85633 0.697237,-0.74948 2.737485,-1.51513 4.037399,-1.51513 1.813798,0 4.87622,-2.08518 5.541507,-3.77317 0.921614,-2.33838 2.741385,-3.61882 5.15805,-3.62936 2.719465,-0.0119 5.054513,2.01639 5.35113,4.64805 0.28666,2.0712 3.144647,4.29588 4.838787,4.34198 2.47097,0 4.82591,-1.70796 5.40151,-3.91755 0.74814,-2.87194 2.85441,-4.43895 5.69076,-4.23379 2.54181,0.18386 4.42441,1.90787 4.90414,4.491 0.26512,1.42755 -0.45235,3.62011 -1.51332,4.62463 -1.25422,1.18748 -1.89682,1.44909 -3.82049,1.55534 -2.82044,0.15578 -5.13069,1.8723 -5.4827,4.07367 -0.20773,1.29905 -1.66762,3.04258 -3.02113,3.60811 -1.04835,0.43803 -2.99686,0.46777 -4.15672,0.0634 z m 3.45493,-0.50674 c 1.49203,-0.37569 2.6108,-1.61324 3.15703,-3.4922 0.4392,-1.51082 1.63763,-2.88021 3.30992,-3.78211 0.50932,-0.27469 0.98557,-0.55896 1.05833,-0.63172 0.0728,-0.0728 0.91592,-0.14071 1.8737,-0.151 1.47258,-0.0158 1.88763,-0.13026 2.68871,-0.74127 0.52103,-0.3974 1.12814,-1.17446 1.34914,-1.72679 0.49733,-1.24296 0.39854,-3.67126 -0.18564,-4.56282 -0.51291,-0.78281 -1.82968,-1.78909 -2.63035,-2.01014 -0.88611,-0.24464 -2.87153,-0.16432 -3.06039,0.12381 -0.0921,0.14052 -0.46511,0.33031 -0.82892,0.42177 -0.7412,0.18635 -1.85842,1.67077 -1.96314,2.60839 -0.16969,1.5194 -1.95399,3.59517 -3.72724,4.33608 -0.45875,0.19167 -1.50878,0.38514 -2.33342,0.42992 -1.73905,0.30539 -4.05676,1.50542 -4.650307,3.16361 -0.838407,2.40506 0.429977,5.08119 2.810907,5.93064 1.24424,0.44391 1.65771,0.45498 3.13167,0.0838 z m -2.93412,-2.04716 c -0.44116,-0.26903 -1.02808,-0.99024 -1.30426,-1.6027 -0.47164,-1.04592 -0.47557,-1.15852 -0.0648,-1.85398 0.24056,-0.40724 0.38099,-0.81668 0.31207,-0.90986 -0.0689,-0.0932 -0.0499,-0.11378 0.0424,-0.0458 0.0922,0.068 0.46549,-0.1106 0.82943,-0.39687 0.96094,-0.75588 2.47152,-0.68449 3.48046,0.16447 0.44773,0.37674 0.81405,0.84307 0.81405,1.03629 0,0.19322 0.14883,0.40157 0.33073,0.46301 0.59448,0.20078 -0.39164,2.36725 -1.38429,3.04125 -1.06424,0.72259 -1.99001,0.75415 -3.05584,0.10418 z m 2.97454,-0.89793 c 0.80024,-0.87432 0.95364,-1.65102 0.49951,-2.5292 -0.89479,-1.73033 -3.28266,-1.66353 -4.02477,0.11259 -0.62464,1.49498 0.38985,3.01192 2.01429,3.01192 0.66404,0 1.13645,-0.18613 1.51097,-0.59531 z m 7.42708,-7.40965 c -1.46053,-1.20621 -1.52813,-3.03225 -0.16076,-4.34227 0.62311,-0.59698 1.02581,-0.74965 1.97741,-0.74965 1.01535,0 1.311,0.12988 1.967,0.86407 1.31198,1.46836 0.95694,3.66524 -0.73191,4.52893 -0.93713,0.47925 -2.26557,0.34819 -3.05174,-0.30108 z m 3.25314,-0.70594 c 0.95917,-0.95918 0.98604,-1.84369 0.0884,-2.91047 -1.34329,-1.5964 -3.81294,-0.69002 -3.81294,1.39936 0,0.69643 0.19415,1.07792 0.81405,1.59953 1.06677,0.89763 1.95129,0.87076 2.91047,-0.0884 z m -31.743603,9.73258 c 1.243644,-0.41654 1.937538,-1.10964 2.782115,-2.77894 0.397887,-0.78641 0.879864,-1.55967 1.071064,-1.71835 0.1912,-0.15869 0.282387,-0.39409 0.202647,-0.52312 -0.0798,-0.12903 -0.0333,-0.2346 0.10315,-0.2346 0.13647,0 0.924887,-0.40752 1.752021,-0.9056 0.827124,-0.49808 1.942878,-0.97099 2.479435,-1.05093 0.536557,-0.0799 1.451804,-0.21025 2.033878,-0.28959 2.548438,-0.34739 4.272186,-3.09056 3.573202,-5.68639 -0.15716,-0.58365 -0.549167,-1.3173 -0.871147,-1.63033 -0.321967,-0.31304 -0.406807,-0.4835 -0.188517,-0.37881 0.218277,0.10468 0.049,-0.10695 -0.37618,-0.47029 -0.958094,-0.81876 -2.835962,-1.31467 -4.142456,-1.09394 -1.046884,0.17688 -3.266372,1.84998 -3.008212,2.26768 0.0824,0.1333 0.0167,0.24236 -0.14603,0.24236 -0.162697,0 -0.222227,0.11906 -0.13229,0.26459 0.0899,0.14552 0.0645,0.26458 -0.0565,0.26458 -0.12102,0 -0.44461,0.417 -0.719077,0.92668 -0.930014,1.72694 -3.607749,3.28647 -6.018247,3.50504 -0.847274,0.0768 -1.540501,0.24924 -1.540501,0.38314 0,0.1339 -0.11906,0.16987 -0.264577,0.0799 -0.14552,-0.0899 -0.26458,-0.0304 -0.26458,0.13229 0,0.1627 -0.0997,0.23422 -0.221467,0.15894 -0.35205,-0.21757 -1.330684,0.59273 -1.791041,1.48299 -0.646977,1.2511 -0.596467,4.17446 0.0887,5.13579 1.405131,1.97144 3.436119,2.65993 5.654587,1.91688 z m -2.853802,-1.93811 c -1.086834,-0.4727 -1.774971,-1.77844 -1.577751,-2.9938 0.176357,-1.08676 0.751414,-1.78427 1.933478,-2.3452 0.816094,-0.38727 0.926444,-0.3754 1.998328,0.21486 0.858654,0.47284 1.224394,0.88367 1.504081,1.68952 0.32896,0.94785 0.31946,1.17032 -0.0866,2.026 -0.274787,0.57907 -0.805784,1.12716 -1.335571,1.37856 -1.057754,0.50194 -1.342924,0.50546 -2.435975,0.0301 z m 2.706872,-1.05592 c 1.710081,-1.71009 -0.154157,-4.40422 -2.398635,-3.46642 -1.380961,0.57701 -1.697291,2.34608 -0.623817,3.48874 0.802187,0.8539 2.156238,0.8439 3.022452,-0.0223 z m 7.634388,-7.12932 c -0.642237,-0.64224 -0.899574,-1.13798 -0.899574,-1.73293 0,-1.90647 1.653961,-3.37346 3.407929,-3.02267 0.437257,0.0875 1.129804,0.53245 1.538991,0.98887 0.663967,0.74061 0.727857,0.96912 0.594097,2.12478 -0.292707,2.5288 -2.849952,3.43345 -4.641443,1.64195 z m 3.532169,-0.58034 c 1.420054,-1.58927 -0.0749,-3.96756 -2.164298,-3.44315 -1.402341,0.35196 -2.102698,1.87031 -1.403541,3.04285 0.876944,1.47073 2.453345,1.6476 3.567839,0.4003 z"
         style="fill:#000000;fill-opacity:1;stroke-width:0.26458338" />
    </g>
  </g>
</svg>
